PathFileType	4	(X/Y/Z)	/Users/niels/Desktop/University/Third Semester/Perception and Action/Exam/Gymnastics Motion Tracking/Code for Gym Tracking/Analyzed Data/Webcam_Backflip/id2_3_pure_Sports2D/id2_3_pure_Sports2D_px_person00.trc
DataRate	CameraRate	NumFrames	NumMarkers	Units	OrigDataRate	OrigDataStartFrame	OrigNumFrames
29.874476987447697	29.874476987447697	9	22	m	29.874476987447697	179	239
Frame#	Time	Hip			RHip			RKnee			RAnkle			RBigToe			RSmallToe			RHeel			LHip			LKnee			LAnkle			LBigToe			LSmallToe			LHeel			Neck			Head			Nose			RShoulder			RElbow			RWrist			LShoulder			LElbow			LWrist		
		X1	Y1	Z1	X2	Y2	Z2	X3	Y3	Z3	X4	Y4	Z4	X5	Y5	Z5	X6	Y6	Z6	X7	Y7	Z7	X8	Y8	Z8	X9	Y9	Z9	X10	Y10	Z10	X11	Y11	Z11	X12	Y12	Z12	X13	Y13	Z13	X14	Y14	Z14	X15	Y15	Z15	X16	Y16	Z16	X17	Y17	Z17	X18	Y18	Z18	X19	Y19	Z19	X20	Y20	Z20	X21	Y21	Z21	X22	Y22	Z22
179	5.991736694677871	0.7854987275045026	-0.5788491553818264	0.0	0.7805431852434146	-0.5763318075987097	0.0	0.7715600863786441	-0.6869433489788307	0.0	0.7482633253218584	-0.8032445471314309	0.0	0.7872901005661237	-0.8245588875015714	0.0	0.7734136360745648	-0.8282031368131703	0.0	0.7385705968197528	-0.8197494101207573	0.0	0.7922740556366351	-0.5762797969724851	0.0	0.7797494197072383	-0.6858175029824423	0.0	0.7645076339486879	-0.7930773804309629	0.0	0.8072213559632128	-0.8103627006365673	0.0	0.8041208199314251	-0.8070185203797392	0.0	0.7560325582346759	-0.8095773449214079	0.0	0.7838635124402178	-0.41083511933756006	0.0	0.7999661819627782	-0.3392110442525478	0.0	0.819375822707332	-0.3765360043177396	0.0	0.7704241389239308	-0.4349814794540518	0.0	0.7646566011003	-0.5165143765589255	0.0	0.7969401687812308	-0.586100069611447	0.0	0.7849735301251793	-0.43312826806249904	0.0	0.7899953569753905	-0.5106714383556421	0.0	0.8149566202944527	-0.5746877854370355	0.0
180	6.025210084033613	0.7853224702632896	-0.5831268110681407	0.0	0.7801864762216489	-0.5802939165202257	0.0	0.7703750425779874	-0.6906295619756524	0.0	0.7480797817940315	-0.8059328091162729	0.0	0.7873168085048415	-0.8274021425165954	0.0	0.7734194495220877	-0.830927055510411	0.0	0.7386291381180321	-0.8223176659627314	0.0	0.7923711507864916	-0.580254893168905	0.0	0.7788326946968205	-0.6893872127824802	0.0	0.7644870613291587	-0.7962131157679275	0.0	0.8075281330429865	-0.8129183053930636	0.0	0.8041180927568677	-0.8097070127399458	0.0	0.7560141182005936	-0.8124109053798989	0.0	0.7839537478109057	-0.41370337338352875	0.0	0.7992447230132071	-0.342205489911861	0.0	0.8191433773706293	-0.3789078567707865	0.0	0.7703004391731131	-0.43833736354780134	0.0	0.7643087028909854	-0.5202314077469966	0.0	0.792878399553274	-0.5911334900149079	0.0	0.7851970106585715	-0.43644493890278113	0.0	0.7896660481774898	-0.5146730707718957	0.0	0.812804332542866	-0.5802299940508298	0.0
181	6.0586834733893555	0.785580300925401	-0.5860131092077705	0.0	0.7801567255060844	-0.5829623673593808	0.0	0.7693873921626345	-0.6932232289326004	0.0	0.7478909184033913	-0.8076780030752919	0.0	0.7866867975003164	-0.8293747354994918	0.0	0.7728519083166481	-0.8327358891645263	0.0	0.738650726603033	-0.8239040334613563	0.0	0.7928690209100538	-0.5829822386633872	0.0	0.7781892370633545	-0.6919914850242085	0.0	0.7645089699869035	-0.798261993654362	0.0	0.8075127474130921	-0.8147022088939474	0.0	0.8038741255604286	-0.8115611090755657	0.0	0.756202381337637	-0.8142740095668571	0.0	0.7840492954354378	-0.4156835693192655	0.0	0.7987056635604829	-0.34417161725055134	0.0	0.818910376075029	-0.38036778233479934	0.0	0.7701534956663092	-0.4406802094638762	0.0	0.7636263066832247	-0.5227170333644168	0.0	0.7884616568623256	-0.5949304590968529	0.0	0.7854816522882703	-0.4388594217707867	0.0	0.7888326608070991	-0.517436573138509	0.0	0.8101317717594033	-0.5844734407914478	0.0
182	6.092156862745098	0.7862884183838303	-0.5870503161499069	0.0	0.7804952163763436	-0.5838737313657306	0.0	0.76865306929531	-0.6943547912703906	0.0	0.7476501192677807	-0.8082952754084971	0.0	0.7854610710124935	-0.8302447957306165	0.0	0.7717275271375977	-0.8334222191750589	0.0	0.7385538983518422	-0.8243863051754958	0.0	0.7936974180225115	-0.5840121561747385	0.0	0.7778408937934016	-0.6933391032862486	0.0	0.7645922632500658	-0.7990223169242285	0.0	0.8072595012379197	-0.8155455727133953	0.0	0.8035401813048879	-0.8124020991254869	0.0	0.7565628116381573	-0.8149816754483623	0.0	0.7840932737035674	-0.41659344802051995	0.0	0.7983994095352982	-0.3449588709972875	0.0	0.8187040584349016	-0.3808071852622941	0.0	0.7699650101435294	-0.4418253997053937	0.0	0.7625791881670136	-0.5237155129885767	0.0	0.7840825448798711	-0.597077167896833	0.0	0.78576803508419	-0.4401600907438118	0.0	0.787526383619392	-0.5185956913705909	0.0	0.80720318501929	-0.58680614617106	0.0
183	6.12563025210084	0.787341268986224	-0.5861418441357406	0.0	0.7811743372816643	-0.5829059019818658	0.0	0.7681616450538692	-0.693832610640682	0.0	0.7473520583901578	-0.8076620194397491	0.0	0.7838693746708908	-0.8298449525443979	0.0	0.7701772043465801	-0.8328190997135343	0.0	0.738302011155798	-0.8237100343842475	0.0	0.7947465668982743	-0.5832275251855188	0.0	0.7777510855872846	-0.6932582603487178	0.0	0.7647249517613962	-0.7984662016911311	0.0	0.8068398111367694	-0.8154098102663052	0.0	0.8032472937229433	-0.8121921488950862	0.0	0.7570255110795064	-0.814453097429488	0.0	0.7840324526961375	-0.41636421136642093	0.0	0.7983292727201224	-0.3445248236956642	0.0	0.8185327475496907	-0.38021813459943377	0.0	0.769713535098459	-0.44170251195911553	0.0	0.7612476146164803	-0.5231763703022293	0.0	0.7802236428869168	-0.597356960195739	0.0	0.7859498913828746	-0.44022030937693407	0.0	0.7858861542047527	-0.5180211249910082	0.0	0.8043580738762797	-0.5869286890099498	0.0
184	6.159103641456582	0.7885312221291416	-0.5835781917755828	0.0	0.7820689348696129	-0.5803265220322265	0.0	0.7678674697449677	-0.6917115222095399	0.0	0.7470145489266764	-0.8058051250920636	0.0	0.7821599032392638	-0.8281672482431475	0.0	0.7683987486702312	-0.8309120477722989	0.0	0.737908451613655	-0.821951693150837	0.0	0.7958707934366916	-0.580870860857314	0.0	0.7778643456508887	-0.6917243802231832	0.0	0.7648520002097232	-0.7967010781526628	0.0	0.8063273390824499	-0.8143617040897548	0.0	0.8030420613601642	-0.8110078124423911	0.0	0.7574926914967933	-0.8127487506158613	0.0	0.7838274785729049	-0.4150309743803479	0.0	0.7984589974803187	-0.3429000010931229	0.0	0.8183880351846109	-0.37867061943477764	0.0	0.7693968372011883	-0.4403374236854492	0.0	0.7597937949959216	-0.5212431850412437	0.0	0.7772905520669566	-0.5958037043310479	0.0	0.7859156256109812	-0.4390081361194799	0.0	0.784116459717193	-0.515853292522213	0.0	0.8019068846739255	-0.5849443893817393	0.0
185	6.192577030812325	0.7896263284268691	-0.579886531009499	0.0	0.7830032694672344	-0.5766533592743535	0.0	0.7677393031296766	-0.6882917307423757	0.0	0.7466598952241738	-0.8029492470268366	0.0	0.7805153174868812	-0.8254372238731098	0.0	0.7666141428737343	-0.8279338625128447	0.0	0.7374397219012466	-0.8193269824414149	0.0	0.7969136681274784	-0.5773919836502859	0.0	0.7781254735122308	-0.6888741513961424	0.0	0.7649345633025497	-0.7939233303884932	0.0	0.8058278611138333	-0.8125173272630998	0.0	0.8029121511403468	-0.808994480298394	0.0	0.7578736423916111	-0.810066365569864	0.0	0.783468885002091	-0.4127038865993992	0.0	0.7987207567367599	-0.34020857795954323	0.0	0.8182617977598486	-0.37629015385848713	0.0	0.7690532427333034	-0.4378537097937466	0.0	0.758413413149913	-0.518189516955804	0.0	0.7754816306231833	-0.5926980827945332	0.0	0.7855978013471641	-0.4365940818865931	0.0	0.7823818898339753	-0.5124418651971018	0.0	0.7999977080614201	-0.5813023169224288	0.0
186	6.226050420168067	0.7904445908168318	-0.5756218966710652	0.0	0.7838004561539131	-0.5724478072969644	0.0	0.767758890165218	-0.6840348630684285	0.0	0.7463252499417296	-0.7994571178220246	0.0	0.77904595114648	-0.8220662886999854	0.0	0.7649965393265051	-0.8243059314589144	0.0	0.7369933355127503	-0.816121113184036	0.0	0.7977557437399501	-0.5732777138388718	0.0	0.7784817227479315	-0.6850054470635714	0.0	0.7649947714853873	-0.7904278807887862	0.0	0.8054161301291015	-0.810025732501327	0.0	0.8028338932017836	-0.8063529004445912	0.0	0.7581403547512465	-0.8067115598545659	0.0	0.7829993220219639	-0.4095595996302839	0.0	0.7990239455948656	-0.3366977021479776	0.0	0.8181370413839231	-0.3732186620548289	0.0	0.7687413795959719	-0.43446140895771834	0.0	0.7572907727607789	-0.5143377736587792	0.0	0.7747866414673807	-0.5884665191311622	0.0	0.7850230334460606	-0.4331691047592026	0.0	0.780796411826735	-0.5082278879644686	0.0	0.798596180485587	-0.5765971748016804	0.0
187	6.2595238095238095	0.7908787591643037	-0.5712290105310918	0.0	0.7842994183483868	-0.568172402050134	0.0	0.7679014174224565	-0.679454815190317	0.0	0.7460575720429555	-0.7957166011311204	0.0	0.7778034256301571	-0.8184809806003465	0.0	0.7636317424135487	-0.8204587690315246	0.0	0.7366542572953908	-0.812613616817664	0.0	0.7983616347395233	-0.5689684266158958	0.0	0.7789031393236433	-0.6805553142875908	0.0	0.7651069989135855	-0.7866072615172253	0.0	0.8050583701632725	-0.8070920395957731	0.0	0.8027936264935143	-0.8033350686620234	0.0	0.7583734193136544	-0.8030470261128188	0.0	0.7824972095526305	-0.4058682885392082	0.0	0.7992818953608586	-0.3327074499392631	0.0	0.8179756571999462	-0.36963094683771525	0.0	0.7684828209680321	-0.4304431284392909	0.0	0.7565559023372102	-0.5100099722712288	0.0	0.7750740918015461	-0.5835567573402327	0.0	0.7843073642246153	-0.4290546454983176	0.0	0.7794703062224017	-0.5036250867007535	0.0	0.7976138150708295	-0.5713844373583766	0.0
